# xmcd
#
# Track frame offsets:
#	182
#	16677
#	26985
#	40687
#	57315
#	70262
#	85455
#	98557
#	112965
#	147250
#	169947
#	196972
#	218365
#	240780
#
# Disc length: 3487
#
# Revision: 2
# Processed by: cddbd v1.5.1PL0 Copyright (c) Steve Scherf et al.
# Submitted via: CDex 1.50Beta7
# Normalized: r1:DSETVAR1,TDELIM( - )
#
DISCID=af0d9d0e
DTITLE=Various Artist - US Academic Decathlon - Breakthroughs in American Jazz
DYEAR=1999
DGENRE=Jazz
TTITLE0=Louis Armstrong - St. James Infirmary
TTITLE1=Fats Waller - Carolina Shout
TTITLE2=Duke Ellington - Take the "A" Train
TTITLE3=Count Basie and His Orchestra - Jumpin' at the Woodside
TTITLE4=Benny Goodman - Body and Soul
TTITLE5=Billie Holiday - Lover Man (O Where Can You Be?)
TTITLE6=Charlie Parker - Ko Ko
TTITLE7=Thelonious Monk - 'Round Midnight
TTITLE8=Quintet (Featuring Dizzy Gillespie) - Night in Tunisia
TTITLE9=Art Blanket Quintet - Once in a While
TTITLE10=Miles Davis Quintet - My Funny Valentine
TTITLE11=John Coltrane - My Funny Valentine
TTITLE12=Ornette Coleman - Lonely Woman
TTITLE13=Charles Mingus - Eat That Chicken
EXTD=YEAR: 1999
EXTT0=
EXTT1=
EXTT2=
EXTT3=
EXTT4=
EXTT5=
EXTT6=
EXTT7=
EXTT8=
EXTT9=
EXTT10=
EXTT11=
EXTT12=
EXTT13=
PLAYORDER=
